{"accessors" : [{"bufferView" : 0, "byteOffset" : 0, "componentType" : 5123, "count" : 49722, "type" : "SCALAR", "max" : [46255], "min" : [0]}, {"bufferView" : 1, "byteOffset" : 0, "componentType" : 5126, "count" : 46256, "type" : "VEC3", "max" : [42.20452880859375, 1.5, 281.7854919433594], "min" : [-38.76863098144531, -1.5, -291.7481689453125], "name" : "POSITION"}, {"bufferView" : 1, "byteOffset" : 12, "componentType" : 5126, "count" : 46256, "type" : "VEC3", "max" : [1.0000042915344238, 1.0000044107437134, 0.9999905824661255], "min" : [-1.0000044107437134, -1.0000044107437134, -0.9999847412109375], "name" : "NORMAL"}, {"bufferView" : 0, "byteOffset" : 99444, "componentType" : 5123, "count" : 18996, "type" : "SCALAR", "max" : [17643], "min" : [0]}, {"bufferView" : 2, "byteOffset" : 0, "componentType" : 5126, "count" : 17644, "type" : "VEC3", "max" : [40.90446472167969, 1.5, 280.3467102050781], "min" : [-31.800390243530273, -1.5, -105.495361328125], "name" : "POSITION"}, {"bufferView" : 2, "byteOffset" : 12, "componentType" : 5126, "count" : 17644, "type" : "VEC3", "max" : [1.0000044107437134, 1.0000044107437134, 0.9974986910820007], "min" : [-1.0000020265579224, -1.0000044107437134, -0.9998005628585815], "name" : "NORMAL"}, {"bufferView" : 0, "byteOffset" : 137436, "componentType" : 5123, "count" : 5940, "type" : "SCALAR", "max" : [5529], "min" : [0]}, {"bufferView" : 3, "byteOffset" : 0, "componentType" : 5126, "count" : 5530, "type" : "VEC3", "max" : [39.77149200439453, 1.5, 267.95367431640625], "min" : [-25.27425193786621, -1.5, 19.600860595703125], "name" : "POSITION"}, {"bufferView" : 3, "byteOffset" : 12, "componentType" : 5126, "count" : 5530, "type" : "VEC3", "max" : [1.0000042915344238, 1.0000044107437134, 0.9995058178901672], "min" : [-1.0000044107437134, -1.0000044107437134, -0.9952401518821716], "name" : "NORMAL"}, {"bufferView" : 0, "byteOffset" : 149316, "componentType" : 5123, "count" : 12912, "type" : "SCALAR", "max" : [12032], "min" : [0]}, {"bufferView" : 4, "byteOffset" : 0, "componentType" : 5126, "count" : 12033, "type" : "VEC3", "max" : [49.89844512939453, 1.5, -103.886962890625], "min" : [-45.91666030883789, -1.5, -292.5474853515625], "name" : "POSITION"}, {"bufferView" : 4, "byteOffset" : 12, "componentType" : 5126, "count" : 12033, "type" : "VEC3", "max" : [1.0000044107437134, 1.0000044107437134, 0.9999919533729553], "min" : [-1.000002384185791, -1.0000044107437134, -0.9999940395355225], "name" : "NORMAL"}, {"bufferView" : 0, "byteOffset" : 175140, "componentType" : 5123, "count" : 4284, "type" : "SCALAR", "max" : [4009], "min" : [0]}, {"bufferView" : 5, "byteOffset" : 0, "componentType" : 5126, "count" : 4010, "type" : "VEC3", "max" : [19.15508270263672, 1.5, 91.89825439453125], "min" : [-32.35133361816406, -1.5, -130.97604370117188], "name" : "POSITION"}, {"bufferView" : 5, "byteOffset" : 12, "componentType" : 5126, "count" : 4010, "type" : "VEC3", "max" : [0.9997416734695435, 1.0000044107437134, 0.9998697638511658], "min" : [-0.9999722242355347, -1.0000044107437134, -0.9986891150474548], "name" : "NORMAL"}, {"bufferView" : 0, "byteOffset" : 183708, "componentType" : 5123, "count" : 6408, "type" : "SCALAR", "max" : [5992], "min" : [0]}, {"bufferView" : 6, "byteOffset" : 0, "componentType" : 5126, "count" : 5993, "type" : "VEC3", "max" : [49.10717010498047, 1.5, -109.83212280273438], "min" : [-44.98971176147461, -1.5, -293.190673828125], "name" : "POSITION"}, {"bufferView" : 6, "byteOffset" : 12, "componentType" : 5126, "count" : 5993, "type" : "VEC3", "max" : [0.9999196529388428, 1.0000044107437134, 0.9997922778129578], "min" : [-1.000001072883606, -1.0000044107437134, -0.999901294708252], "name" : "NORMAL"}, {"bufferView" : 0, "byteOffset" : 196524, "componentType" : 5123, "count" : 4380, "type" : "SCALAR", "max" : [4087], "min" : [0]}, {"bufferView" : 7, "byteOffset" : 0, "componentType" : 5126, "count" : 4088, "type" : "VEC3", "max" : [17.130706787109375, 1.5, -81.56405639648438], "min" : [-35.70686721801758, -1.5, -264.33831787109375], "name" : "POSITION"}, {"bufferView" : 7, "byteOffset" : 12, "componentType" : 5126, "count" : 4088, "type" : "VEC3", "max" : [0.9996466636657715, 1.0000044107437134, 0.9999783635139465], "min" : [-1.0000017881393433, -1.0000044107437134, -0.9999978542327881], "name" : "NORMAL"}, {"bufferView" : 0, "byteOffset" : 205284, "componentType" : 5123, "count" : 4452, "type" : "SCALAR", "max" : [4146], "min" : [0]}, {"bufferView" : 8, "byteOffset" : 0, "componentType" : 5126, "count" : 4147, "type" : "VEC3", "max" : [13.667491912841797, 1.5, -187.59197998046875], "min" : [-33.05421447753906, -1.5, -273.9573974609375], "name" : "POSITION"}, {"bufferView" : 8, "byteOffset" : 12, "componentType" : 5126, "count" : 4147, "type" : "VEC3", "max" : [0.999891459941864, 1.0000044107437134, 0.9982149600982666], "min" : [-0.9998050928115845, -1.0000044107437134, -0.9861865639686584], "name" : "NORMAL"}, {"bufferView" : 0, "byteOffset" : 214188, "componentType" : 5123, "count" : 564, "type" : "SCALAR", "max" : [529], "min" : [0]}, {"bufferView" : 9, "byteOffset" : 0, "componentType" : 5126, "count" : 530, "type" : "VEC3", "max" : [-5.012866973876953, 1.5, -121.0902099609375], "min" : [-22.308792114257812, -1.5, -133.00759887695312], "name" : "POSITION"}, {"bufferView" : 9, "byteOffset" : 12, "componentType" : 5126, "count" : 530, "type" : "VEC3", "max" : [0.9998971819877625, 1.0000044107437134, 0.9953290820121765], "min" : [-0.8871763348579407, -1.0000044107437134, -0.9967256784439087], "name" : "NORMAL"}, {"bufferView" : 0, "byteOffset" : 215316, "componentType" : 5123, "count" : 1128, "type" : "SCALAR", "max" : [1055], "min" : [0]}, {"bufferView" : 10, "byteOffset" : 0, "componentType" : 5126, "count" : 1056, "type" : "VEC3", "max" : [-7.870628356933594, 1.5, 86.29238891601562], "min" : [-25.007822036743164, -1.5, -123.63162231445312], "name" : "POSITION"}, {"bufferView" : 10, "byteOffset" : 12, "componentType" : 5126, "count" : 1056, "type" : "VEC3", "max" : [0.999995768070221, 1.0000044107437134, 0.9986352920532227], "min" : [-1.0000042915344238, -1.0000044107437134, -0.9978039264678955], "name" : "NORMAL"}], "asset" : {"generator" : "Aspose.3D 22.10", "version" : "2.0"}, "buffers" : [{"uri" : "data:application/octet-stream;base64,", "byteLength" : 2828480}], "bufferViews" : [{"buffer" : 0, "byteOffset" : 0, "byteLength" : 217572, "target" : 34963}, {"buffer" : 0, "byteOffset" : 217576, "byteLength" : 1193328, "byteStride" : 24, "target" : 34962}, {"buffer" : 0, "byteOffset" : 1410908, "byteLength" : 455904, "byteStride" : 24, "target" : 34962}, {"buffer" : 0, "byteOffset" : 1866816, "byteLength" : 142560, "byteStride" : 24, "target" : 34962}, {"buffer" : 0, "byteOffset" : 2009380, "byteLength" : 309888, "byteStride" : 24, "target" : 34962}, {"buffer" : 0, "byteOffset" : 2319272, "byteLength" : 102816, "byteStride" : 24, "target" : 34962}, {"buffer" : 0, "byteOffset" : 2422092, "byteLength" : 153792, "byteStride" : 24, "target" : 34962}, {"buffer" : 0, "byteOffset" : 2575888, "byteLength" : 105120, "byteStride" : 24, "target" : 34962}, {"buffer" : 0, "byteOffset" : 2681012, "byteLength" : 106848, "byteStride" : 24, "target" : 34962}, {"buffer" : 0, "byteOffset" : 2787864, "byteLength" : 13536, "byteStride" : 24, "target" : 34962}, {"buffer" : 0, "byteOffset" : 2801404, "byteLength" : 27072, "byteStride" : 24, "target" : 34962}], "materials" : [{"name" : "mat0", "pbrMetallicRoughness" : {"baseColorFactor" : [0.40784314274787903, 0.4431372582912445, 0.47058823704719543, 1], "metallicFactor" : 0, "roughnessFactor" : 0.4000000059604645}, "emissiveFactor" : [0, 0, 0], "alphaMode" : "OPAQUE", "doubleSided" : true}, {"name" : "mat1", "pbrMetallicRoughness" : {"baseColorFactor" : [0.5647059082984924, 0.6274510025978088, 0.6784313917160034, 1], "metallicFactor" : 0, "roughnessFactor" : 0.4000000059604645}, "emissiveFactor" : [0, 0, 0], "alphaMode" : "OPAQUE", "doubleSided" : true}, {"name" : "mat2", "pbrMetallicRoughness" : {"baseColorFactor" : [0.7529411911964417, 0.8470588326454163, 0.929411768913269, 1], "metallicFactor" : 0, "roughnessFactor" : 0.4000000059604645}, "emissiveFactor" : [0, 0, 0], "alphaMode" : "OPAQUE", "doubleSided" : true}, {"name" : "mat3", "pbrMetallicRoughness" : {"baseColorFactor" : [0.43921568989753723, 0.3490196168422699, 0.1921568661928177, 1], "metallicFactor" : 0, "roughnessFactor" : 0.4000000059604645}, "emissiveFactor" : [0, 0, 0], "alphaMode" : "OPAQUE", "doubleSided" : true}, {"name" : "mat4", "pbrMetallicRoughness" : {"baseColorFactor" : [0.3764705955982208, 0.4117647111415863, 0.43921568989753723, 1], "metallicFactor" : 0, "roughnessFactor" : 0.4000000059604645}, "emissiveFactor" : [0, 0, 0], "alphaMode" : "OPAQUE", "doubleSided" : true}, {"name" : "mat5", "pbrMetallicRoughness" : {"baseColorFactor" : [0.6117647290229797, 0.4901960790157318, 0.2862745225429535, 1], "metallicFactor" : 0, "roughnessFactor" : 0.4000000059604645}, "emissiveFactor" : [0, 0, 0], "alphaMode" : "OPAQUE", "doubleSided" : true}, {"name" : "mat6", "pbrMetallicRoughness" : {"baseColorFactor" : [0.239215686917305, 0.239215686917305, 0.239215686917305, 1], "metallicFactor" : 0, "roughnessFactor" : 0.4000000059604645}, "emissiveFactor" : [0, 0, 0], "alphaMode" : "OPAQUE", "doubleSided" : true}, {"name" : "mat7", "pbrMetallicRoughness" : {"baseColorFactor" : [0, 0, 0, 1], "metallicFactor" : 0, "roughnessFactor" : 0.4000000059604645}, "emissiveFactor" : [0, 0, 0], "alphaMode" : "OPAQUE", "doubleSided" : true}, {"name" : "mat8", "pbrMetallicRoughness" : {"baseColorFactor" : [0.3607843220233917, 0.3960784375667572, 0.42352941632270813, 1], "metallicFactor" : 0, "roughnessFactor" : 0.4000000059604645}, "emissiveFactor" : [0, 0, 0], "alphaMode" : "OPAQUE", "doubleSided" : true}, {"name" : "mat9", "pbrMetallicRoughness" : {"baseColorFactor" : [0.4117647111415863, 0.45490196347236633, 0.4901960790157318, 1], "metallicFactor" : 0, "roughnessFactor" : 0.4000000059604645}, "emissiveFactor" : [0, 0, 0], "alphaMode" : "OPAQUE", "doubleSided" : true}], "meshes" : [{"primitives" : [{"attributes" : {"POSITION" : 1, "NORMAL" : 2}, "indices" : 0, "material" : 0, "mode" : 4}, {"attributes" : {"POSITION" : 4, "NORMAL" : 5}, "indices" : 3, "material" : 1, "mode" : 4}, {"attributes" : {"POSITION" : 7, "NORMAL" : 8}, "indices" : 6, "material" : 2, "mode" : 4}, {"attributes" : {"POSITION" : 10, "NORMAL" : 11}, "indices" : 9, "material" : 3, "mode" : 4}, {"attributes" : {"POSITION" : 13, "NORMAL" : 14}, "indices" : 12, "material" : 4, "mode" : 4}, {"attributes" : {"POSITION" : 16, "NORMAL" : 17}, "indices" : 15, "material" : 5, "mode" : 4}, {"attributes" : {"POSITION" : 19, "NORMAL" : 20}, "indices" : 18, "material" : 6, "mode" : 4}, {"attributes" : {"POSITION" : 22, "NORMAL" : 23}, "indices" : 21, "material" : 7, "mode" : 4}, {"attributes" : {"POSITION" : 25, "NORMAL" : 26}, "indices" : 24, "material" : 8, "mode" : 4}, {"attributes" : {"POSITION" : 28, "NORMAL" : 29}, "indices" : 27, "material" : 9, "mode" : 4}]}], "nodes" : [{"mesh" : 0, "name" : "imagetostl_mesh"}], "scene" : 0, "scenes" : [{"nodes" : [0]}]}